<?xml version="1.0" encoding="utf-8"?>
<!-- Generator: Adobe Illustrator 22.0.1, SVG Export Plug-In . SVG Version: 6.00 Build 0)  -->
<svg version="1.1" id="Ebene_1" xmlns="http://www.w3.org/2000/svg" xmlns:xlink="http://www.w3.org/1999/xlink" x="0px" y="0px"
	 viewBox="0 0 135 40" style="enable-background:new 0 0 135 40;" xml:space="preserve">
<style type="text/css">
	.st0{fill:#FFFFFF;}
</style>
<title>badge_appstore_fr</title>
<desc>Created with Sketch.</desc>
<g>
	<g id="Page-1">
		<g id="badge_appstore_fr">
			<path id="Shape" d="M135,35.5c0,2.1-1.7,3.8-3.8,3.8H3.9c-2.1,0-3.8-1.7-3.8-3.8V4.5c0-2.1,1.7-3.8,3.8-3.8h127.3
				c2.1,0,3.8,1.7,3.8,3.8V35.5L135,35.5z"/>
			<g id="Group" transform="translate(12.000000, 6.000000)">
				<path id="Shape_1_" class="st0" d="M17.7,13.8c0-3.2,2.6-4.8,2.8-4.9c-1.5-2.2-3.9-2.5-4.7-2.5c-2-0.3-4,1.1-5,1.1
					S8.1,6.3,6.5,6.4c-2.2,0-4.2,1.2-5.4,3.1c-2.3,3.9-0.6,9.8,1.6,13.1c1.1,1.6,2.4,3.3,4,3.2c1.6-0.1,2.2-1,4.2-1
					c1.9,0,2.5,1,4.2,1s2.8-1.6,3.9-3.1c1.3-1.8,1.8-3.5,1.8-3.6C21,18.9,17.7,17.6,17.7,13.8z"/>
				<path id="Shape_2_" class="st0" d="M14.5,4.2C15.4,3,16,1.5,15.8,0c-1.3,0.1-2.8,0.9-3.9,1.9c-0.8,0.9-1.5,2.5-1.3,3.9
					C11.9,6.1,13.5,5.3,14.5,4.2z"/>
			</g>
		</g>
	</g>
	<g>
		<g>
			<path class="st0" d="M51.8,27.5h-5L45.5,31h-2l4.7-12.9h2.1L55.1,31h-2.2L51.8,27.5z M47.4,25.9h3.9l-1.9-5.7h-0.1L47.4,25.9z"/>
			<path class="st0" d="M65.1,26.3c0,2.9-1.5,4.8-3.9,4.8c-1.2,0.1-2.3-0.6-2.9-1.6l0,0v4.7h-1.9V21.6h1.8v1.5l0,0
				c0.6-1.1,1.7-1.7,3-1.6C63.6,21.5,65.1,23.3,65.1,26.3z M63.2,26.3c0-1.9-1-3.1-2.5-3.1s-2.4,1.3-2.4,3.1c0,1.9,1,3.1,2.4,3.1
				C62.2,29.4,63.2,28.2,63.2,26.3z"/>
			<path class="st0" d="M75.5,26.3c0,2.9-1.5,4.8-3.9,4.8c-1.2,0.1-2.3-0.6-2.9-1.6l0,0v4.7h-1.9V21.6h1.8v1.5l0,0
				c0.6-1.1,1.7-1.7,3-1.6C74,21.5,75.5,23.3,75.5,26.3z M73.6,26.3c0-1.9-1-3.1-2.5-3.1s-2.4,1.3-2.4,3.1c0,1.9,1,3.1,2.4,3.1
				C72.6,29.4,73.6,28.2,73.6,26.3L73.6,26.3z"/>
			<path class="st0" d="M82.4,27.4c0.1,1.3,1.4,2.1,3,2.1c1.6,0,2.8-0.8,2.8-2c0-1-0.7-1.6-2.3-2l-1.7-0.4c-2.3-0.6-3.4-1.7-3.4-3.4
				c0-2.2,1.9-3.7,4.7-3.7s4.5,1.5,4.7,3.7h-1.9c-0.1-1.3-1.2-2-2.7-2S83,20.5,83,21.6c0,0.9,0.7,1.4,2.3,1.8l1.4,0.3
				c2.6,0.6,3.7,1.7,3.7,3.5c0,2.4-1.9,3.9-5,3.9c-2.8,0-4.8-1.5-5-3.8L82.4,27.4z"/>
			<path class="st0" d="M94.5,19.4v2.2h1.8v1.5h-1.8v5.2c0,0.8,0.4,1.2,1.1,1.2c0.2,0,0.4,0,0.6,0v1.5c-0.3,0.1-0.7,0.1-1.1,0.1
				c-1.9,0-2.6-0.7-2.6-2.5v-5.4h-1.2v-1.5h1.4v-2.2h1.8C94.5,19.5,94.5,19.4,94.5,19.4z"/>
			<path class="st0" d="M97.4,26.3c0-2.9,1.7-4.9,4.4-4.9c2.7,0,4.4,1.8,4.4,4.9c0,2.9-1.7,4.9-4.4,4.9S97.4,29.2,97.4,26.3z
				 M104.4,26.3c0-2-0.9-3.2-2.5-3.2c-1.6,0-2.4,1.2-2.4,3.2s0.9,3.2,2.5,3.2C103.5,29.5,104.4,28.3,104.4,26.3L104.4,26.3z"/>
			<path class="st0" d="M107.9,21.6h1.8v1.6l0,0c0.3-1,1.2-1.7,2.2-1.7c0.2,0,0.4,0,0.7,0.1v1.8c-0.3-0.1-0.6-0.1-0.9-0.1
				c-1.1,0-2,0.8-2,1.8c0,0.1,0,0.2,0,0.3v5.6h-1.9L107.9,21.6z"/>
			<path class="st0" d="M121.7,28.2c-0.3,1.7-1.9,2.8-4,2.8c-2.7,0-4.4-1.8-4.4-4.8s1.7-4.9,4.3-4.9s4.2,1.8,4.2,4.7v0.7h-6.6v0.1
				c-0.1,1.3,0.9,2.5,2.2,2.6c0.1,0,0.2,0,0.3,0c0.9,0.1,1.8-0.4,2.1-1.3L121.7,28.2z M115.2,25.4h4.7c0.1-1.2-0.9-2.3-2.1-2.4
				c-0.1,0-0.1,0-0.2,0C116.3,23,115.2,24,115.2,25.4L115.2,25.4z"/>
		</g>
		<g id="_Group_4">
			<g>
				<path class="st0" d="M47.3,7.3c1.1-0.1,2,0.8,2,1.8c0,0.1,0,0.1,0,0.2c0,1.1-0.8,2-1.9,2c-0.1,0-0.1,0-0.2,0h-1.4v2.1h-1V7.3
					H47.3z M45.8,10.6h1.2c0.8,0,1.3-0.4,1.3-1.2s-0.5-1.2-1.3-1.2h-1.2V10.6z"/>
				<path class="st0" d="M50.3,11.2c-0.1-1.2,0.8-2.3,2-2.4c1.2-0.1,2.3,0.8,2.4,2c0,0.1,0,0.3,0,0.4c0.1,1.2-0.8,2.3-2,2.4
					c-1.2,0.1-2.3-0.8-2.4-2C50.3,11.5,50.3,11.4,50.3,11.2z M53.7,11.2c0-1-0.4-1.6-1.2-1.6c-0.8,0-1.2,0.6-1.2,1.6
					s0.4,1.6,1.2,1.6C53.3,12.8,53.7,12.2,53.7,11.2z"/>
				<path class="st0" d="M56.9,12.8L56.9,12.8l-0.1,0.7h-0.9V7h0.9v2.5h0.1c0.3-0.5,0.8-0.8,1.4-0.8c1.2,0,1.9,0.9,1.9,2.4
					s-0.7,2.4-1.9,2.4C57.9,13.6,57.2,13.3,56.9,12.8z M56.8,11.2c0,1,0.5,1.6,1.2,1.6c0.8,0,1.2-0.6,1.2-1.6S58.7,9.6,58,9.6
					C57.3,9.7,56.9,10.3,56.8,11.2z"/>
				<path class="st0" d="M61.5,7.4c0-0.3,0.2-0.6,0.6-0.6c0.3,0,0.6,0.2,0.6,0.6c0,0.4-0.2,0.6-0.6,0.6l0,0
					C61.8,8,61.5,7.8,61.5,7.4C61.5,7.5,61.5,7.5,61.5,7.4z M61.6,8.8h0.9v4.7h-0.9V8.8z"/>
				<path class="st0" d="M68.1,12.3c-0.3,0.9-1.1,1.4-2,1.3c-1.2,0-2.1-0.9-2.2-2c0-0.1,0-0.2,0-0.3c-0.2-1.2,0.7-2.2,1.8-2.4
					c0.1,0,0.2,0,0.3,0c1.3,0,2.1,0.9,2.1,2.3v0.3h-3.3v0.1c-0.1,0.7,0.4,1.3,1.1,1.3h0.1c0.4,0.1,0.9-0.2,1.1-0.6H68.1z M64.7,10.8
					H67c0-0.6-0.4-1.1-1-1.2h-0.1C65.2,9.6,64.7,10.1,64.7,10.8L64.7,10.8L64.7,10.8z"/>
				<path class="st0" d="M69.4,8.8h0.9v0.7h0.1c0.2-0.5,0.7-0.8,1.2-0.8c0.1,0,0.3,0,0.4,0v0.9c-0.2,0-0.3-0.1-0.5-0.1
					c-0.6-0.1-1.1,0.4-1.2,1v0.1v2.7h-0.9V8.8z"/>
				<path class="st0" d="M72.9,12.9l2.5-3.2l0,0h-2.5V8.8h3.6v0.7L74,12.7v0.1h2.5v0.8h-3.7v-0.7C72.8,12.9,72.9,12.9,72.9,12.9z"/>
				<path class="st0" d="M85.2,13.5h-0.9l-1-3.4h-0.1l-1,3.4h-0.9l-1.2-4.7H81l0.8,3.5h0.1l1-3.5h0.9l1,3.5h0.1l0.7-3.5h0.9
					L85.2,13.5z"/>
			</g>
		</g>
	</g>
</g>
</svg>
