<?xml version="1.0" encoding="utf-8"?>
<!-- Generator: Adobe Illustrator 22.0.1, SVG Export Plug-In . SVG Version: 6.00 Build 0)  -->
<svg version="1.1" id="Ebene_1" xmlns="http://www.w3.org/2000/svg" xmlns:xlink="http://www.w3.org/1999/xlink" x="0px" y="0px"
	 viewBox="0 0 133 38" style="enable-background:new 0 0 133 38;" xml:space="preserve">
<style type="text/css">
	.st0{fill:url(#Shape_1_);}
	.st1{fill:url(#Shape_9_);}
	.st2{fill:url(#Shape_10_);}
	.st3{fill:url(#Shape_11_);}
	.st4{opacity:0.2;enable-background:new    ;}
	.st5{opacity:0.12;enable-background:new    ;}
	.st6{opacity:0.25;fill:#FFFFFF;enable-background:new    ;}
	.st7{fill:#FFFFFF;}
	.st8{fill:#FFFFFF;stroke:#FFFFFF;stroke-width:0.2;stroke-miterlimit:10;}
</style>
<title>badge_googleplay_de</title>
<desc>Created with Sketch.</desc>
<path id="Shape" d="M133.1,34.4c0,2.1-1.7,3.8-3.8,3.8H3.8c-2.1,0-3.8-1.7-3.8-3.8V3.8C0,1.7,1.7,0,3.8,0h125.5
	c2.1,0,3.8,1.7,3.8,3.8V34.4L133.1,34.4L133.1,34.4z"/>
<g id="Group" transform="translate(8.000000, 6.000000)">
	
		<linearGradient id="Shape_1_" gradientUnits="userSpaceOnUse" x1="-910.4702" y1="-60.9979" x2="-911.7611" y2="-60.3266" gradientTransform="matrix(13 0 0 25 11848.9004 1526.6102)">
		<stop  offset="0" style="stop-color:#00A0FF"/>
		<stop  offset="6.574450e-03" style="stop-color:#00A1FF"/>
		<stop  offset="0.2601" style="stop-color:#00BEFF"/>
		<stop  offset="0.5122" style="stop-color:#00D2FF"/>
		<stop  offset="0.7604" style="stop-color:#00DFFF"/>
		<stop  offset="1" style="stop-color:#00E3FF"/>
	</linearGradient>
	<path id="Shape_2_" class="st0" d="M1.4,0.5C1.1,0.8,0.9,1.3,0.9,1.9V24c0,0.6,0.2,1.1,0.5,1.4l0.1,0.1l12.4-12.4V13v-0.1L1.4,0.5
		L1.4,0.5L1.4,0.5z"/>
	
		<linearGradient id="Shape_9_" gradientUnits="userSpaceOnUse" x1="-889.3561" y1="-10.6949" x2="-891.7402" y2="-10.6949" gradientTransform="matrix(10.15 0 0 8.5 9051.7998 103.9571)">
		<stop  offset="0" style="stop-color:#FFE000"/>
		<stop  offset="0.4087" style="stop-color:#FFBD00"/>
		<stop  offset="0.7754" style="stop-color:#FFA500"/>
		<stop  offset="1" style="stop-color:#FF9C00"/>
	</linearGradient>
	<path id="Shape_3_" class="st1" d="M18,17.3l-4.1-4.1V13v-0.1L18,8.8l0.1,0.1l4.9,2.8c1.4,0.8,1.4,2.1,0,2.9L18,17.3L18,17.3
		L18,17.3z"/>
	
		<linearGradient id="Shape_10_" gradientUnits="userSpaceOnUse" x1="-927.0537" y1="-36.7357" x2="-928.4166" y2="-34.9699" gradientTransform="matrix(16.7 0 0 12.8885 15497.6006 488.7651)">
		<stop  offset="0" style="stop-color:#FF3A44"/>
		<stop  offset="1" style="stop-color:#C31162"/>
	</linearGradient>
	<path id="Shape_4_" class="st2" d="M18.1,17.2L13.9,13L1.4,25.5C1.9,26,2.6,26,3.5,25.6L18.1,17.2"/>
	
		<linearGradient id="Shape_11_" gradientUnits="userSpaceOnUse" x1="-928.1042" y1="-37.2239" x2="-927.4957" y2="-36.4317" gradientTransform="matrix(16.7 0 0 12.8287 15497.6006 470.7427)">
		<stop  offset="0" style="stop-color:#32A071"/>
		<stop  offset="6.850000e-02" style="stop-color:#2DA771"/>
		<stop  offset="0.4762" style="stop-color:#15CF74"/>
		<stop  offset="0.8009" style="stop-color:#06E775"/>
		<stop  offset="1" style="stop-color:#00F076"/>
	</linearGradient>
	<path id="Shape_5_" class="st3" d="M18.1,8.8L3.5,0.5C2.6,0,1.9,0.1,1.4,0.6L13.9,13L18.1,8.8L18.1,8.8z"/>
	<g id="Shape_6_" transform="translate(1.000000, 17.000000)">
		<path class="st4" d="M17,0.1L2.5,8.3c-0.8,0.5-1.5,0.4-2,0l0,0L0.4,8.4l0,0l0.1,0.1l0,0c0.5,0.4,1.2,0.5,2,0L17,0.1L17,0.1L17,0.1
			z"/>
		<path class="st5" d="M0.4,8.3C0.1,8,0,7.5,0,6.9V7C0,7.6,0.2,8.1,0.4,8.3L0.4,8.3L0.4,8.3L0.4,8.3z"/>
	</g>
	<path id="Shape_7_" class="st5" d="M23,14.3l-5,2.8l0.1,0.1L23,14.3c0.7-0.3,1-0.8,1-1.3l0,0C24,13.5,23.6,13.9,23,14.3L23,14.3z"
		/>
	<path id="Shape_8_" class="st6" d="M3.5,0.6L23,11.7c0.6,0.4,1,0.8,1,1.3l0,0c0-0.5-0.3-1-1-1.4L3.5,0.5C2.1-0.3,1,0.4,1,2v0.1
		C1,0.5,2.1-0.2,3.5,0.6L3.5,0.6z"/>
</g>
<g>
	<path class="st7" d="M66.2,21.9c-2.3,0-4.2,1.7-4.2,4.1s1.9,4.1,4.2,4.1c2.3,0,4.2-1.8,4.2-4.1C70.4,23.6,68.5,21.9,66.2,21.9z
		 M66.2,28.6c-1.3,0-2.3-1-2.3-2.5s1.1-2.5,2.3-2.5c1.3,0,2.3,1,2.3,2.5C68.6,27.5,67.5,28.6,66.2,28.6z M57.2,21.9
		c-2.3,0-4.2,1.7-4.2,4.1s1.9,4.1,4.2,4.1s4.2-1.8,4.2-4.1C61.3,23.6,59.5,21.9,57.2,21.9z M57.2,28.6c-1.3,0-2.3-1-2.3-2.5
		s1.1-2.5,2.3-2.5c1.3,0,2.3,1,2.3,2.5C59.5,27.5,58.4,28.6,57.2,28.6z M46.4,23.2V25h4.2c-0.1,1-0.5,1.7-1,2.2
		c-0.6,0.6-1.6,1.3-3.2,1.3c-2.6,0-4.6-2.1-4.6-4.7s2-4.7,4.6-4.7c1.4,0,2.4,0.5,3.2,1.3l1.2-1.2c-1.1-1-2.4-1.8-4.4-1.8
		c-3.5,0-6.5,2.9-6.5,6.4s3,6.4,6.5,6.4c1.9,0,3.4-0.6,4.5-1.8c1.2-1.2,1.5-2.8,1.5-4.1c0-0.4,0-0.8-0.1-1.1
		C52.3,23.2,46.4,23.2,46.4,23.2z M90.5,24.5c-0.3-0.9-1.4-2.6-3.5-2.6s-3.9,1.7-3.9,4.1c0,2.3,1.8,4.1,4.1,4.1c1.9,0,3-1.2,3.5-1.8
		l-1.4-0.9c-0.5,0.7-1.1,1.1-2,1.1s-1.6-0.4-2-1.3l5.5-2.3L90.5,24.5z M84.9,25.9c0-1.6,1.2-2.4,2.2-2.4c0.7,0,1.3,0.4,1.5,0.9
		L84.9,25.9z M80.4,29.9h1.8V17.8h-1.8V29.9z M77.4,22.8L77.4,22.8c-0.5-0.5-1.3-0.9-2.2-0.9c-2.1,0-4,1.8-4,4.2
		c0,2.3,1.9,4.1,4,4.1c1,0,1.8-0.4,2.2-0.9h0.1v0.6c0,1.6-0.8,2.4-2.2,2.4c-1.1,0-1.8-0.8-2.1-1.5l-1.6,0.7c0.5,1.1,1.7,2.4,3.7,2.4
		c2.1,0,3.9-1.3,3.9-4.3v-7.4h-1.7v0.6H77.4z M75.3,28.6c-1.3,0-2.3-1.1-2.3-2.5c0-1.5,1.1-2.5,2.3-2.5c1.2,0,2.2,1.1,2.2,2.5
		S76.5,28.6,75.3,28.6z M99,17.8h-4.4V30h1.8v-4.6H99c2,0,4-1.5,4-3.8S101.1,17.8,99,17.8z M99.1,23.6h-2.6v-4.2h2.6
		c1.4,0,2.1,1.1,2.1,2.1C101.2,22.5,100.5,23.6,99.1,23.6z M110.3,21.9c-1.3,0-2.7,0.6-3.2,1.9l1.6,0.7c0.3-0.7,1-0.9,1.7-0.9
		c0.9,0,1.9,0.6,1.9,1.6v0.1c-0.3-0.2-1-0.5-1.9-0.5c-1.7,0-3.5,1-3.5,2.7c0,1.6,1.4,2.7,3,2.7c1.2,0,1.9-0.5,2.3-1.2h0.1v0.9h1.8
		v-4.7C114,23.1,112.4,21.9,110.3,21.9z M110.1,28.6c-0.6,0-1.4-0.3-1.4-1c0-0.9,1-1.3,1.9-1.3c0.8,0,1.2,0.2,1.7,0.4
		C112.1,27.8,111.2,28.6,110.1,28.6z M120.4,22.2l-2.1,5.3h-0.1l-2.2-5.3h-2l3.2,7.4l-1.8,4.1h1.9l5-11.5H120.4z M104,29.9h1.8V17.8
		H104V29.9z"/>
</g>
<g>
	<path class="st8" d="M42.5,12.8h-0.8v-6h2c0.5,0,0.9,0.2,1.3,0.5c0.4,0.3,0.6,0.8,0.6,1.3c0,0.5-0.2,0.9-0.6,1.3
		c-0.4,0.3-0.8,0.5-1.3,0.5h-1.3V12.8z M42.5,9.6h1.3c0.3,0,0.6-0.1,0.8-0.3c0.2-0.2,0.3-0.5,0.3-0.7S44.8,8,44.6,7.8
		c-0.2-0.2-0.5-0.3-0.8-0.3h-1.3V9.6z"/>
	<path class="st8" d="M51.6,12c-0.6,0.6-1.3,0.9-2.2,0.9c-0.9,0-1.6-0.3-2.2-0.9c-0.6-0.6-0.9-1.3-0.9-2.2s0.3-1.6,0.9-2.2
		c0.6-0.6,1.3-0.9,2.2-0.9c0.9,0,1.6,0.3,2.2,0.9c0.6,0.6,0.9,1.3,0.9,2.2C52.5,10.6,52.2,11.4,51.6,12z M47.7,11.5
		c0.4,0.4,1,0.7,1.6,0.7c0.6,0,1.2-0.2,1.6-0.7c0.4-0.4,0.7-1,0.7-1.7S51.5,8.5,51,8c-0.4-0.4-1-0.7-1.6-0.7c-0.6,0-1.2,0.2-1.6,0.7
		c-0.4,0.4-0.7,1-0.7,1.7S47.3,11,47.7,11.5z"/>
	<path class="st8" d="M53.5,12.8v-6h2.2c0.5,0,0.9,0.2,1.2,0.5c0.3,0.3,0.5,0.7,0.5,1.2c0,0.3-0.1,0.5-0.2,0.8
		c-0.1,0.2-0.3,0.4-0.6,0.5v0c0.3,0.1,0.5,0.3,0.7,0.5c0.2,0.2,0.3,0.5,0.3,0.9c0,0.5-0.2,0.9-0.5,1.2c-0.4,0.3-0.8,0.5-1.3,0.5
		H53.5z M54.3,9.3h1.4c0.3,0,0.5-0.1,0.7-0.3c0.2-0.2,0.3-0.4,0.3-0.6S56.6,8,56.4,7.8c-0.2-0.2-0.4-0.3-0.7-0.3h-1.4V9.3z M54.3,12
		h1.6c0.3,0,0.5-0.1,0.7-0.3c0.2-0.2,0.3-0.4,0.3-0.7c0-0.2-0.1-0.5-0.3-0.7c-0.2-0.2-0.4-0.3-0.7-0.3h-1.5V12z"/>
	<path class="st8" d="M58.7,12.8v-6h0.8v6H58.7z"/>
	<path class="st8" d="M64.3,7.5h-2.7v1.9h2.5v0.7h-2.5V12h2.7v0.7h-3.5v-6h3.5V7.5z"/>
	<path class="st8" d="M65.5,12.8v-6h2c0.5,0,0.9,0.2,1.3,0.5c0.4,0.3,0.6,0.8,0.6,1.3c0,0.4-0.1,0.8-0.4,1.1c-0.3,0.3-0.6,0.5-1,0.6
		l0,0l1.7,2.4v0h-0.9l-1.6-2.4h-0.9v2.4H65.5z M66.3,9.6h1.2c0.3,0,0.6-0.1,0.8-0.3c0.2-0.2,0.3-0.5,0.3-0.8c0-0.3-0.1-0.5-0.3-0.7
		c-0.2-0.2-0.5-0.3-0.8-0.3h-1.3V9.6z"/>
	<path class="st8" d="M70.2,12.8v-0.8l3.2-4.5h-3.1V6.8h4v0.8L71.1,12h3.2v0.7H70.2z"/>
	<path class="st8" d="M77.1,12.8v-0.8l3.2-4.5h-3.1V6.8h4v0.8L78,12h3.2v0.7H77.1z"/>
</g>
</svg>
