<?xml version="1.0" encoding="UTF-8" standalone="no"?>
<svg width="60px" height="60px" viewBox="0 0 60 60" version="1.1" xmlns="http://www.w3.org/2000/svg" xmlns:xlink="http://www.w3.org/1999/xlink">
    <!-- Generator: Sketch 3.8.3 (29802) - http://www.bohemiancoding.com/sketch -->
    <title>logo_twitter</title>
    <desc>Created with Sketch.</desc>
    <defs></defs>
    <g id="assets" stroke="none" stroke-width="1" fill="none" fill-rule="evenodd">
        <g id="logo_twitter">
            <rect id="Rectangle-75" fill="#55ACEE" x="0" y="0" width="60" height="60" rx="8"></rect>
            <path d="M50.7538432,27.2342928 C53.7203954,26.9879454 55.7185276,25.6330348 56.4908119,23.7977467 C55.4243241,24.4628847 52.102276,25.1772921 50.2757625,24.4875194 C50.1899531,24.0564115 50.0918853,23.6499383 49.981559,23.2680998 C48.5840922,18.1194395 43.803285,13.968486 38.8018251,14.4734982 C39.2063549,14.3133723 39.6231432,14.1532465 40.0276731,14.0177555 C40.5793047,13.8206776 43.8155434,13.2910307 43.3006873,12.1455153 C42.8716405,11.1354911 38.9244099,12.9091922 38.1766426,13.1432223 C39.157321,12.7737012 40.7876989,12.133198 40.9593176,11 C39.4515245,11.2093953 37.9805069,11.9238027 36.8404683,12.9584617 C37.2572566,12.5150364 37.5637186,11.9730722 37.6372695,11.3818384 C33.6287465,13.9808034 31.2873768,19.1664159 29.3873123,24.2042199 C27.9040362,22.7507703 26.5801204,21.6175724 25.3910478,20.9770692 C22.0689997,19.1910506 18.0972521,17.3188105 11.8576858,14.9908277 C11.6615501,17.0601457 12.8751396,19.8192364 16.3688064,21.6545245 C15.6087807,21.5559855 14.2235724,21.7776982 13.1203092,22.0486803 C13.573873,24.4259326 15.0448906,26.3843943 19.0288966,27.3205144 C17.2146416,27.4436881 16.2707386,27.8624786 15.412645,28.7493292 C16.2462216,30.3998567 18.2688709,32.346001 21.9096395,31.9395279 C17.864341,33.6885943 20.2547446,36.9403798 23.5522758,36.447685 C17.9378919,42.2738007 9.08726925,41.8426928 4,36.9773319 C17.275934,55.157769 46.1323962,47.7303953 50.4351227,30.2150962 C53.659103,30.2397309 55.5469089,29.0942155 56.723723,27.8255265 C54.8726925,28.1580955 52.1758269,27.8378439 50.7538432,27.2342928 L50.7538432,27.2342928 Z" id="Twitter__x28_alt_x29_" fill="#FFFFFF"></path>
        </g>
    </g>
</svg>